<svg width="135" height="122" viewBox="0 0 135 122" fill="none" xmlns="http://www.w3.org/2000/svg">
<path d="M25.6628 68.1524C24.0987 60.605 25.515 52.0941 30.8923 46.6817C36.7889 40.7893 45.9546 39.8095 54.172 38.5121C64.9073 36.8135 78.7919 30.8756 82.3305 19.8064C83.493 16.2094 84.4284 12.2832 87.215 9.63084C90.6032 6.44179 96.0931 6.29787 100.15 8.47933C110.193 13.6988 113.203 26.6874 108.787 36.6613C102.956 50.042 88.4497 48.3895 77.0828 53.9262C66.8172 58.9459 59.3779 68.9407 56.6994 80.0238C54.0267 91.4674 57.7063 101.2 50.1904 111.612C44.9558 118.992 37.0455 122.143 32.0062 112.377C29.1428 106.819 30.5974 102.413 34.4991 98.3838C39.4394 93.3945 36.7813 90.2474 33.6629 86.0813C29.9197 81.01 26.9821 74.2891 25.6628 68.1524Z" fill="url(#paint0_linear)"/>
<defs>
<linearGradient id="paint0_linear" x1="-22.0083" y1="63.6456" x2="185.293" y2="67.6582" gradientUnits="userSpaceOnUse">
<stop offset="0.40625" stop-color="#3C09B3"/>
<stop offset="0.628445" stop-color="#D43F4F"/>
<stop offset="0.802083" stop-color="#F4C545"/>
</linearGradient>
</defs>
</svg>
