<svg width="132" height="108" viewBox="0 0 132 108" fill="none" xmlns="http://www.w3.org/2000/svg">
<path d="M22.4621 14.3832C28.2621 11.2832 34.2621 8.98323 39.0621 7.38323C56.0621 1.68323 73.3621 -2.01677 91.1621 1.18323C105.262 3.78323 118.162 17.5832 124.462 29.8832C131.262 43.1832 133.062 58.9832 129.162 73.4832C125.862 85.7832 118.362 97.2832 107.162 103.383C100.062 107.183 91.5621 108.483 83.7621 106.683C77.0621 105.183 72.7621 99.7832 66.7621 97.2832C58.5621 93.8832 50.6621 97.0832 42.5621 95.3832C36.0621 94.0832 32.0621 85.7832 33.6621 79.7832C34.7621 75.5832 37.9621 72.2832 40.5621 68.6832C43.1621 65.1832 45.2621 60.6832 43.8621 56.4832C42.3621 51.8832 36.9621 49.6832 32.1621 49.6832C27.3621 49.7832 22.6621 51.5832 17.9621 52.4832C11.5621 53.7832 2.16213 52.9832 0.462131 45.4832C-2.53787 31.5832 9.56213 21.1832 22.4621 14.3832Z" fill="url(#paint0_linear)"/>
<defs>
<linearGradient id="paint0_linear" x1="-18.565" y1="-25.6921" x2="210.839" y2="87.5515" gradientUnits="userSpaceOnUse">
<stop offset="0.40625" stop-color="#3C09B3"/>
<stop offset="0.628445" stop-color="#D43F4F"/>
<stop offset="0.802083" stop-color="#F4C545"/>
</linearGradient>
</defs>
</svg>
